  0
SECTION
  2
HEADER
  9
$ACADVER
  1
AC1024
  9
$ACADMAINTVER
 70
6
  9
$DWGCODEPAGE
  3
ANSI_1252
  9
$LASTSAVEDBY
  1
ezdxf
  9
$INSBASE
 10
0.0
 20
0.0
 30
0.0
  9
$EXTMIN
 10
1e+20
 20
1e+20
 30
1e+20
  9
$EXTMAX
 10
-1e+20
 20
-1e+20
 30
-1e+20
  9
$LIMMIN
 10
0.0
 20
0.0
  9
$LIMMAX
 10
420.0
 20
297.0
  9
$ORTHOMODE
 70
0
  9
$REGENMODE
 70
1
  9
$FILLMODE
 70
1
  9
$QTEXTMODE
 70
0
  9
$MIRRTEXT
 70
1
  9
$LTSCALE
 40
1.0
  9
$ATTMODE
 70
1
  9
$TEXTSIZE
 40
2.5
  9
$TRACEWID
 40
1.0
  9
$TEXTSTYLE
  7
Standard
  9
$CLAYER
  8
0
  9
$CELTYPE
  6
ByLayer
  9
$CECOLOR
 62
256
  9
$CELTSCALE
 40
1.0
  9
$DISPSILH
 70
0
  9
$DIMSCALE
 40
1.0
  9
$DIMASZ
 40
2.5
  9
$DIMEXO
 40
0.625
  9
$DIMDLI
 40
3.75
  9
$DIMRND
 40
0.0
  9
$DIMDLE
 40
0.0
  9
$DIMEXE
 40
1.25
  9
$DIMTP
 40
0.0
  9
$DIMTM
 40
0.0
  9
$DIMTXT
 40
2.5
  9
$DIMCEN
 40
2.5
  9
$DIMTSZ
 40
0.0
  9
$DIMTOL
 70
0
  9
$DIMLIM
 70
0
  9
$DIMTIH
 70
0
  9
$DIMTOH
 70
0
  9
$DIMSE1
 70
0
  9
$DIMSE2
 70
0
  9
$DIMTAD
 70
1
  9
$DIMZIN
 70
8
  9
$DIMBLK
  1

  9
$DIMASO
 70
1
  9
$DIMSHO
 70
1
  9
$DIMPOST
  1

  9
$DIMAPOST
  1

  9
$DIMALT
 70
0
  9
$DIMALTD
 70
3
  9
$DIMALTF
 40
0.03937007874
  9
$DIMLFAC
 40
1.0
  9
$DIMTOFL
 70
1
  9
$DIMTVP
 40
0.0
  9
$DIMTIX
 70
0
  9
$DIMSOXD
 70
0
  9
$DIMSAH
 70
0
  9
$DIMBLK1
  1

  9
$DIMBLK2
  1

  9
$DIMSTYLE
  2
ISO-25
  9
$DIMCLRD
 70
0
  9
$DIMCLRE
 70
0
  9
$DIMCLRT
 70
0
  9
$DIMTFAC
 40
1.0
  9
$DIMGAP
 40
0.625
  9
$DIMJUST
 70
0
  9
$DIMSD1
 70
0
  9
$DIMSD2
 70
0
  9
$DIMTOLJ
 70
0
  9
$DIMTZIN
 70
8
  9
$DIMALTZ
 70
0
  9
$DIMALTTZ
 70
0
  9
$DIMUPT
 70
0
  9
$DIMDEC
 70
2
  9
$DIMTDEC
 70
2
  9
$DIMALTU
 70
2
  9
$DIMALTTD
 70
3
  9
$DIMTXSTY
  7
Standard
  9
$DIMAUNIT
 70
0
  9
$DIMADEC
 70
0
  9
$DIMALTRND
 40
0.0
  9
$DIMAZIN
 70
0
  9
$DIMDSEP
 70
44
  9
$DIMATFIT
 70
3
  9
$DIMFRAC
 70
0
  9
$DIMLDRBLK
  1

  9
$DIMLUNIT
 70
2
  9
$DIMLWD
 70
-2
  9
$DIMLWE
 70
-2
  9
$DIMTMOVE
 70
0
  9
$DIMFXL
 40
1.0
  9
$DIMFXLON
 70
0
  9
$DIMJOGANG
 40
0.785398163397
  9
$DIMTFILL
 70
0
  9
$DIMTFILLCLR
 70
0
  9
$DIMARCSYM
 70
0
  9
$DIMLTYPE
  6

  9
$DIMLTEX1
  6

  9
$DIMLTEX2
  6

  9
$DIMTXTDIRECTION
 70
0
  9
$LUNITS
 70
2
  9
$LUPREC
 70
4
  9
$SKETCHINC
 40
1.0
  9
$FILLETRAD
 40
10.0
  9
$AUNITS
 70
0
  9
$AUPREC
 70
2
  9
$MENU
  1
.
  9
$ELEVATION
 40
0.0
  9
$PELEVATION
 40
0.0
  9
$THICKNESS
 40
0.0
  9
$LIMCHECK
 70
0
  9
$CHAMFERA
 40
0.0
  9
$CHAMFERB
 40
0.0
  9
$CHAMFERC
 40
0.0
  9
$CHAMFERD
 40
0.0
  9
$SKPOLY
 70
0
  9
$TDCREATE
 40
2461294.303414352
  9
$TDUCREATE
 40
2458532.153996898
  9
$TDUPDATE
 40
2461294.303414352
  9
$TDUUPDATE
 40
2458532.1544311
  9
$TDINDWG
 40
0.0
  9
$TDUSRTIMER
 40
0.0
  9
$USRTIMER
 70
1
  9
$ANGBASE
 50
0.0
  9
$ANGDIR
 70
0
  9
$PDMODE
 70
0
  9
$PDSIZE
 40
0.0
  9
$PLINEWID
 40
0.0
  9
$SPLFRAME
 70
0
  9
$SPLINETYPE
 70
6
  9
$SPLINESEGS
 70
8
  9
$HANDSEED
  5
DC
  9
$SURFTAB1
 70
6
  9
$SURFTAB2
 70
6
  9
$SURFTYPE
 70
6
  9
$SURFU
 70
6
  9
$SURFV
 70
6
  9
$UCSBASE
  2

  9
$UCSNAME
  2

  9
$UCSORG
 10
0.0
 20
0.0
 30
0.0
  9
$UCSXDIR
 10
1.0
 20
0.0
 30
0.0
  9
$UCSYDIR
 10
0.0
 20
1.0
 30
0.0
  9
$UCSORTHOREF
  2

  9
$UCSORTHOVIEW
 70
0
  9
$UCSORGTOP
 10
0.0
 20
0.0
 30
0.0
  9
$UCSORGBOTTOM
 10
0.0
 20
0.0
 30
0.0
  9
$UCSORGLEFT
 10
0.0
 20
0.0
 30
0.0
  9
$UCSORGRIGHT
 10
0.0
 20
0.0
 30
0.0
  9
$UCSORGFRONT
 10
0.0
 20
0.0
 30
0.0
  9
$UCSORGBACK
 10
0.0
 20
0.0
 30
0.0
  9
$PUCSBASE
  2

  9
$PUCSNAME
  2

  9
$PUCSORG
 10
0.0
 20
0.0
 30
0.0
  9
$PUCSXDIR
 10
1.0
 20
0.0
 30
0.0
  9
$PUCSYDIR
 10
0.0
 20
1.0
 30
0.0
  9
$PUCSORTHOREF
  2

  9
$PUCSORTHOVIEW
 70
0
  9
$PUCSORGTOP
 10
0.0
 20
0.0
 30
0.0
  9
$PUCSORGBOTTOM
 10
0.0
 20
0.0
 30
0.0
  9
$PUCSORGLEFT
 10
0.0
 20
0.0
 30
0.0
  9
$PUCSORGRIGHT
 10
0.0
 20
0.0
 30
0.0
  9
$PUCSORGFRONT
 10
0.0
 20
0.0
 30
0.0
  9
$PUCSORGBACK
 10
0.0
 20
0.0
 30
0.0
  9
$USERI1
 70
0
  9
$USERI2
 70
0
  9
$USERI3
 70
0
  9
$USERI4
 70
0
  9
$USERI5
 70
0
  9
$USERR1
 40
0.0
  9
$USERR2
 40
0.0
  9
$USERR3
 40
0.0
  9
$USERR4
 40
0.0
  9
$USERR5
 40
0.0
  9
$WORLDVIEW
 70
1
  9
$SHADEDGE
 70
3
  9
$SHADEDIF
 70
70
  9
$TILEMODE
 70
1
  9
$MAXACTVP
 70
64
  9
$PINSBASE
 10
0.0
 20
0.0
 30
0.0
  9
$PLIMCHECK
 70
0
  9
$PEXTMIN
 10
1e+20
 20
1e+20
 30
1e+20
  9
$PEXTMAX
 10
-1e+20
 20
-1e+20
 30
-1e+20
  9
$PLIMMIN
 10
0.0
 20
0.0
  9
$PLIMMAX
 10
420.0
 20
297.0
  9
$UNITMODE
 70
0
  9
$VISRETAIN
 70
1
  9
$PLINEGEN
 70
0
  9
$PSLTSCALE
 70
1
  9
$TREEDEPTH
 70
3020
  9
$CMLSTYLE
  2
Standard
  9
$CMLJUST
 70
0
  9
$CMLSCALE
 40
20.0
  9
$PROXYGRAPHICS
 70
1
  9
$MEASUREMENT
 70
1
  9
$CELWEIGHT
370
-1
  9
$ENDCAPS
280
0
  9
$JOINSTYLE
280
0
  9
$LWDISPLAY
290
0
  9
$INSUNITS
 70
4
  9
$HYPERLINKBASE
  1

  9
$STYLESHEET
  1

  9
$XEDIT
290
1
  9
$CEPSNTYPE
380
0
  9
$PSTYLEMODE
290
1
  9
$FINGERPRINTGUID
  2
{CA7BDC9D-0A40-47AF-9864-866C489B6D5E}
  9
$VERSIONGUID
  2
{13AF4A1A-E6D4-4147-B0BB-FD0F6BB902F6}
  9
$EXTNAMES
290
1
  9
$PSVPSCALE
 40
0.0
  9
$OLESTARTUP
290
0
  9
$SORTENTS
280
127
  9
$INDEXCTL
280
0
  9
$HIDETEXT
280
1
  9
$XCLIPFRAME
280
1
  9
$HALOGAP
280
0
  9
$OBSCOLOR
 70
257
  9
$OBSLTYPE
280
0
  9
$INTERSECTIONDISPLAY
280
0
  9
$INTERSECTIONCOLOR
 70
257
  9
$DIMASSOC
280
2
  9
$PROJECTNAME
  1

  9
$CAMERADISPLAY
290
0
  9
$LENSLENGTH
 40
50.0
  9
$CAMERAHEIGHT
 40
0.0
  9
$STEPSPERSEC
 40
24.0
  9
$STEPSIZE
 40
100.0
  9
$3DDWFPREC
 40
2.0
  9
$PSOLWIDTH
 40
0.005
  9
$PSOLHEIGHT
 40
0.08
  9
$LOFTANG1
 40
1.570796326795
  9
$LOFTANG2
 40
1.570796326795
  9
$LOFTMAG1
 40
0.0
  9
$LOFTMAG2
 40
0.0
  9
$LOFTPARAM
 70
7
  9
$LOFTNORMALS
280
1
  9
$LATITUDE
 40
37.795
  9
$LONGITUDE
 40
-122.394
  9
$NORTHDIRECTION
 40
0.0
  9
$TIMEZONE
 70
-8000
  9
$LIGHTGLYPHDISPLAY
280
1
  9
$TILEMODELIGHTSYNCH
280
1
  9
$CMATERIAL
347
20
  9
$SOLIDHIST
280
0
  9
$SHOWHIST
280
1
  9
$DWFFRAME
280
2
  9
$DGNFRAME
280
2
  9
$REALWORLDSCALE
290
1
  9
$INTERFERECOLOR
 62
256
  9
$CSHADOW
280
0
  9
$SHADOWPLANELOCATION
 40
0.0
  0
ENDSEC
  0
SECTION
  2
CLASSES
  0
CLASS
  1
ACDBDICTIONARYWDFLT
  2
AcDbDictionaryWithDefault
  3
ObjectDBX Classes
 90
0
 91
0
280
0
281
0
  0
CLASS
  1
SUN
  2
AcDbSun
  3
SCENEOE
 90
1153
 91
0
280
0
281
0
  0
CLASS
  1
VISUALSTYLE
  2
AcDbVisualStyle
  3
ObjectDBX Classes
 90
4095
 91
0
280
0
281
0
  0
CLASS
  1
MATERIAL
  2
AcDbMaterial
  3
ObjectDBX Classes
 90
1153
 91
0
280
0
281
0
  0
CLASS
  1
SCALE
  2
AcDbScale
  3
ObjectDBX Classes
 90
1153
 91
0
280
0
281
0
  0
CLASS
  1
TABLESTYLE
  2
AcDbTableStyle
  3
ObjectDBX Classes
 90
4095
 91
0
280
0
281
0
  0
CLASS
  1
MLEADERSTYLE
  2
AcDbMLeaderStyle
  3
ACDB_MLEADERSTYLE_CLASS
 90
4095
 91
0
280
0
281
0
  0
CLASS
  1
DICTIONARYVAR
  2
AcDbDictionaryVar
  3
ObjectDBX Classes
 90
0
 91
0
280
0
281
0
  0
CLASS
  1
CELLSTYLEMAP
  2
AcDbCellStyleMap
  3
ObjectDBX Classes
 90
1152
 91
0
280
0
281
0
  0
CLASS
  1
MENTALRAYRENDERSETTINGS
  2
AcDbMentalRayRenderSettings
  3
SCENEOE
 90
1024
 91
0
280
0
281
0
  0
CLASS
  1
ACDBDETAILVIEWSTYLE
  2
AcDbDetailViewStyle
  3
ObjectDBX Classes
 90
1025
 91
0
280
0
281
0
  0
CLASS
  1
ACDBSECTIONVIEWSTYLE
  2
AcDbSectionViewStyle
  3
ObjectDBX Classes
 90
1025
 91
0
280
0
281
0
  0
CLASS
  1
RASTERVARIABLES
  2
AcDbRasterVariables
  3
ISM
 90
0
 91
0
280
0
281
0
  0
CLASS
  1
ACDBPLACEHOLDER
  2
AcDbPlaceHolder
  3
ObjectDBX Classes
 90
0
 91
0
280
0
281
0
  0
CLASS
  1
LAYOUT
  2
AcDbLayout
  3
ObjectDBX Classes
 90
0
 91
0
280
0
281
0
  0
ENDSEC
  0
SECTION
  2
TABLES
  0
TABLE
  2
VPORT
  5
8
330
0
100
AcDbSymbolTable
 70
1
  0
VPORT
  5
23
330
8
100
AcDbSymbolTableRecord
100
AcDbViewportTableRecord
  2
*Active
 70
0
 10
0.0
 20
0.0
 11
1.0
 21
1.0
 12
0.0
 22
0.0
 13
0.0
 23
0.0
 14
0.5
 24
0.5
 15
0.5
 25
0.5
 16
0.0
 26
0.0
 36
1.0
 17
0.0
 27
0.0
 37
0.0
 40
1000.0
 41
1.34
 42
50.0
 43
0.0
 44
0.0
 50
0.0
 51
0.0
 71
0
 72
1000
 73
1
 74
3
 75
0
 76
0
 77
0
 78
0
281
0
 65
0
146
0.0
  0
ENDTAB
  0
TABLE
  2
LTYPE
  5
2
330
0
100
AcDbSymbolTable
 70
3
  0
LTYPE
  5
24
330
2
100
AcDbSymbolTableRecord
100
AcDbLinetypeTableRecord
  2
ByBlock
 70
0
  3

 72
65
 73
0
 40
0.0
  0
LTYPE
  5
25
330
2
100
AcDbSymbolTableRecord
100
AcDbLinetypeTableRecord
  2
ByLayer
 70
0
  3

 72
65
 73
0
 40
0.0
  0
LTYPE
  5
26
330
2
100
AcDbSymbolTableRecord
100
AcDbLinetypeTableRecord
  2
Continuous
 70
0
  3

 72
65
 73
0
 40
0.0
  0
ENDTAB
  0
TABLE
  2
LAYER
  5
1
330
0
100
AcDbSymbolTable
 70
9
  0
LAYER
  5
27
330
1
100
AcDbSymbolTableRecord
100
AcDbLayerTableRecord
  2
0
 70
0
 62
7
  6
Continuous
370
-3
390
13
347
21
  0
LAYER
  5
28
330
1
100
AcDbSymbolTableRecord
100
AcDbLayerTableRecord
  2
Defpoints
 70
0
 62
7
  6
Continuous
290
0
370
-3
390
13
347
21
  0
LAYER
  5
2F
330
1
100
AcDbSymbolTableRecord
100
AcDbLayerTableRecord
  2
SOURCE_WALL
 70
0
 62
7
  6
Continuous
370
-3
390
13
347
21
  0
LAYER
  5
30
330
1
100
AcDbSymbolTableRecord
100
AcDbLayerTableRecord
  2
SOURCE_OPENING
 70
0
 62
4
  6
Continuous
370
-3
390
13
347
21
  0
LAYER
  5
31
330
1
100
AcDbSymbolTableRecord
100
AcDbLayerTableRecord
  2
NEW_INTERIOR
 70
0
 62
30
  6
Continuous
370
-3
390
13
347
21
  0
LAYER
  5
32
330
1
100
AcDbSymbolTableRecord
100
AcDbLayerTableRecord
  2
FURNITURE
 70
0
 62
32
  6
Continuous
370
-3
390
13
347
21
  0
LAYER
  5
33
330
1
100
AcDbSymbolTableRecord
100
AcDbLayerTableRecord
  2
LANDSCAPE
 70
0
 62
3
  6
Continuous
370
-3
390
13
347
21
  0
LAYER
  5
34
330
1
100
AcDbSymbolTableRecord
100
AcDbLayerTableRecord
  2
SERVICE_INTENT
 70
0
 62
6
  6
Continuous
370
-3
390
13
347
21
  0
LAYER
  5
35
330
1
100
AcDbSymbolTableRecord
100
AcDbLayerTableRecord
  2
NOTE
 70
0
 62
8
  6
Continuous
370
-3
390
13
347
21
  0
ENDTAB
  0
TABLE
  2
STYLE
  5
5
330
0
100
AcDbSymbolTable
 70
1
  0
STYLE
  5
29
330
5
100
AcDbSymbolTableRecord
100
AcDbTextStyleTableRecord
  2
Standard
 70
0
 40
0.0
 41
1.0
 50
0.0
 71
0
 42
2.5
  3
txt
  4

  0
ENDTAB
  0
TABLE
  2
VIEW
  5
7
330
0
100
AcDbSymbolTable
 70
0
  0
ENDTAB
  0
TABLE
  2
UCS
  5
6
330
0
100
AcDbSymbolTable
 70
0
  0
ENDTAB
  0
TABLE
  2
APPID
  5
3
330
0
100
AcDbSymbolTable
 70
3
  0
APPID
  5
2A
330
3
100
AcDbSymbolTableRecord
100
AcDbRegAppTableRecord
  2
ACAD
 70
0
  0
APPID
  5
D9
330
3
100
AcDbSymbolTableRecord
100
AcDbRegAppTableRecord
  2
HATCHBACKGROUNDCOLOR
 70
0
  0
APPID
  5
DA
330
3
100
AcDbSymbolTableRecord
100
AcDbRegAppTableRecord
  2
EZDXF
 70
0
  0
ENDTAB
  0
TABLE
  2
DIMSTYLE
  5
4
330
0
100
AcDbSymbolTable
 70
1
100
AcDbDimStyleTable
  0
DIMSTYLE
105
2B
330
4
100
AcDbSymbolTableRecord
100
AcDbDimStyleTableRecord
  2
Standard
 70
0
 40
1.0
 41
2.5
 42
0.625
 43
3.75
 44
1.25
 45
0.0
 46
0.0
 47
0.0
 48
0.0
 49
2.5
140
2.5
141
2.5
142
0.0
143
0.03937007874
144
1.0
145
0.0
146
1.0
147
0.625
148
0.0
 69
0
 70
0
 71
0
 72
0
 73
0
 74
0
 75
0
 76
0
 77
1
 78
8
 79
3
170
0
171
3
172
1
173
0
174
0
175
0
176
0
177
0
178
0
179
2
271
2
272
2
273
2
274
3
275
0
276
0
277
2
278
44
279
0
280
0
281
0
282
0
283
0
284
8
285
0
286
0
288
0
289
3
290
0
371
-2
372
-2
  0
ENDTAB
  0
TABLE
  2
BLOCK_RECORD
  5
9
330
0
100
AcDbSymbolTable
 70
2
  0
BLOCK_RECORD
  5
17
330
9
100
AcDbSymbolTableRecord
100
AcDbBlockTableRecord
  2
*Model_Space
340
1A
 70
0
280
1
281
0
  0
BLOCK_RECORD
  5
1B
330
9
100
AcDbSymbolTableRecord
100
AcDbBlockTableRecord
  2
*Paper_Space
340
1E
 70
0
280
1
281
0
  0
ENDTAB
  0
ENDSEC
  0
SECTION
  2
BLOCKS
  0
BLOCK
  5
18
330
17
100
AcDbEntity
  8
0
100
AcDbBlockBegin
  2
*Model_Space
 70
0
 10
0.0
 20
0.0
 30
0.0
  3
*Model_Space
  1

  0
ENDBLK
  5
19
330
17
100
AcDbEntity
  8
0
100
AcDbBlockEnd
  0
BLOCK
  5
1C
330
1B
100
AcDbEntity
  8
0
100
AcDbBlockBegin
  2
*Paper_Space
 70
0
 10
0.0
 20
0.0
 30
0.0
  3
*Paper_Space
  1

  0
ENDBLK
  5
1D
330
1B
100
AcDbEntity
  8
0
100
AcDbBlockEnd
  0
ENDSEC
  0
SECTION
  2
ENTITIES
  0
LWPOLYLINE
  5
36
330
17
100
AcDbEntity
  8
SOURCE_WALL
100
AcDbPolyline
 90
4
 70
1
 10
3160.0
 20
12680.0
 10
3480.0
 20
12680.0
 10
3480.0
 20
12920.0
 10
3160.0
 20
12920.0
  0
LWPOLYLINE
  5
37
330
17
100
AcDbEntity
  8
SOURCE_WALL
100
AcDbPolyline
 90
4
 70
1
 10
120.0
 20
7280.0
 10
450.0
 20
7280.0
 10
450.0
 20
7520.0
 10
120.0
 20
7520.0
  0
LWPOLYLINE
  5
38
330
17
100
AcDbEntity
  8
SOURCE_WALL
100
AcDbPolyline
 90
4
 70
1
 10
2180.0
 20
7520.0
 10
2420.0
 20
7520.0
 10
2420.0
 20
7625.0
 10
2180.0
 20
7625.0
  0
LWPOLYLINE
  5
39
330
17
100
AcDbEntity
  8
SOURCE_WALL
100
AcDbPolyline
 90
4
 70
1
 10
2180.0
 20
8375.0
 10
2420.0
 20
8375.0
 10
2420.0
 20
8480.0
 10
2180.0
 20
8480.0
  0
LWPOLYLINE
  5
3A
330
17
100
AcDbEntity
  8
SOURCE_WALL
100
AcDbPolyline
 90
4
 70
1
 10
3720.0
 20
13580.0
 10
4000.0
 20
13580.0
 10
4000.0
 20
13820.0
 10
3720.0
 20
13820.0
  0
LWPOLYLINE
  5
3B
330
17
100
AcDbEntity
  8
SOURCE_WALL
100
AcDbPolyline
 90
4
 70
1
 10
-120.0
 20
1220.0
 10
120.0
 20
1220.0
 10
120.0
 20
5180.0
 10
-120.0
 20
5180.0
  0
LWPOLYLINE
  5
3C
330
17
100
AcDbEntity
  8
SOURCE_WALL
100
AcDbPolyline
 90
4
 70
1
 10
-120.0
 20
7520.0
 10
120.0
 20
7520.0
 10
120.0
 20
8480.0
 10
-120.0
 20
8480.0
  0
LWPOLYLINE
  5
3D
330
17
100
AcDbEntity
  8
SOURCE_WALL
100
AcDbPolyline
 90
4
 70
1
 10
-120.0
 20
8720.0
 10
120.0
 20
8720.0
 10
120.0
 20
12680.0
 10
-120.0
 20
12680.0
  0
LWPOLYLINE
  5
3E
330
17
100
AcDbEntity
  8
SOURCE_WALL
100
AcDbPolyline
 90
4
 70
1
 10
4000.0
 20
12680.0
 10
4080.0
 20
12680.0
 10
4080.0
 20
12920.0
 10
4000.0
 20
12920.0
  0
LWPOLYLINE
  5
3F
330
17
100
AcDbEntity
  8
SOURCE_WALL
100
AcDbPolyline
 90
4
 70
1
 10
3720.0
 20
12680.0
 10
4000.0
 20
12680.0
 10
4000.0
 20
12920.0
 10
3720.0
 20
12920.0
  0
LWPOLYLINE
  5
40
330
17
100
AcDbEntity
  8
SOURCE_WALL
100
AcDbPolyline
 90
4
 70
1
 10
1250.0
 20
12680.0
 10
2390.0
 20
12680.0
 10
2390.0
 20
12920.0
 10
1250.0
 20
12920.0
  0
LWPOLYLINE
  5
41
330
17
100
AcDbEntity
  8
SOURCE_WALL
100
AcDbPolyline
 90
4
 70
1
 10
120.0
 20
12680.0
 10
500.0
 20
12680.0
 10
500.0
 20
12920.0
 10
120.0
 20
12920.0
  0
LWPOLYLINE
  5
42
330
17
100
AcDbEntity
  8
SOURCE_WALL
100
AcDbPolyline
 90
4
 70
1
 10
3480.0
 20
12920.0
 10
3720.0
 20
12920.0
 10
3720.0
 20
13580.0
 10
3480.0
 20
13580.0
  0
LWPOLYLINE
  5
43
330
17
100
AcDbEntity
  8
SOURCE_WALL
100
AcDbPolyline
 90
4
 70
1
 10
4320.0
 20
11180.0
 10
5200.0
 20
11180.0
 10
5200.0
 20
11300.0
 10
4320.0
 20
11300.0
  0
LWPOLYLINE
  5
44
330
17
100
AcDbEntity
  8
SOURCE_WALL
100
AcDbPolyline
 90
4
 70
1
 10
6000.0
 20
11180.0
 10
7680.0
 20
11180.0
 10
7680.0
 20
11300.0
 10
6000.0
 20
11300.0
  0
LWPOLYLINE
  5
45
330
17
100
AcDbEntity
  8
SOURCE_WALL
100
AcDbPolyline
 90
4
 70
1
 10
7680.0
 20
11300.0
 10
7920.0
 20
11300.0
 10
7920.0
 20
13270.0
 10
7680.0
 20
13270.0
  0
LWPOLYLINE
  5
46
330
17
100
AcDbEntity
  8
SOURCE_WALL
100
AcDbPolyline
 90
4
 70
1
 10
7680.0
 20
8100.0
 10
7920.0
 20
8100.0
 10
7920.0
 20
9510.0
 10
7680.0
 20
9510.0
  0
LWPOLYLINE
  5
47
330
17
100
AcDbEntity
  8
SOURCE_WALL
100
AcDbPolyline
 90
4
 70
1
 10
7680.0
 20
5350.0
 10
7920.0
 20
5350.0
 10
7920.0
 20
7350.0
 10
7680.0
 20
7350.0
  0
LWPOLYLINE
  5
48
330
17
100
AcDbEntity
  8
SOURCE_WALL
100
AcDbPolyline
 90
4
 70
1
 10
7680.0
 20
4220.0
 10
7920.0
 20
4220.0
 10
7920.0
 20
4600.0
 10
7680.0
 20
4600.0
  0
LWPOLYLINE
  5
49
330
17
100
AcDbEntity
  8
SOURCE_WALL
100
AcDbPolyline
 90
4
 70
1
 10
4080.0
 20
11300.0
 10
4320.0
 20
11300.0
 10
4320.0
 20
12680.0
 10
4080.0
 20
12680.0
  0
LWPOLYLINE
  5
4A
330
17
100
AcDbEntity
  8
SOURCE_WALL
100
AcDbPolyline
 90
4
 70
1
 10
4080.0
 20
11080.0
 10
4320.0
 20
11080.0
 10
4320.0
 20
11180.0
 10
4080.0
 20
11180.0
  0
LWPOLYLINE
  5
4B
330
17
100
AcDbEntity
  8
SOURCE_WALL
100
AcDbPolyline
 90
4
 70
1
 10
120.0
 20
8480.0
 10
2180.0
 20
8480.0
 10
2180.0
 20
8720.0
 10
120.0
 20
8720.0
  0
LWPOLYLINE
  5
4C
330
17
100
AcDbEntity
  8
SOURCE_WALL
100
AcDbPolyline
 90
4
 70
1
 10
1200.0
 20
7280.0
 10
2180.0
 20
7280.0
 10
2180.0
 20
7520.0
 10
1200.0
 20
7520.0
  0
LWPOLYLINE
  5
4D
330
17
100
AcDbEntity
  8
SOURCE_WALL
100
AcDbPolyline
 90
4
 70
1
 10
3480.0
 20
1220.0
 10
3720.0
 20
1220.0
 10
3720.0
 20
3980.0
 10
3480.0
 20
3980.0
  0
LWPOLYLINE
  5
4E
330
17
100
AcDbEntity
  8
SOURCE_WALL
100
AcDbPolyline
 90
4
 70
1
 10
120.0
 20
5180.0
 10
370.0
 20
5180.0
 10
370.0
 20
5300.0
 10
120.0
 20
5300.0
  0
LWPOLYLINE
  5
4F
330
17
100
AcDbEntity
  8
SOURCE_WALL
100
AcDbPolyline
 90
4
 70
1
 10
2300.0
 20
6220.0
 10
2420.0
 20
6220.0
 10
2420.0
 20
7280.0
 10
2300.0
 20
7280.0
  0
LWPOLYLINE
  5
50
330
17
100
AcDbEntity
  8
SOURCE_WALL
100
AcDbPolyline
 90
4
 70
1
 10
3720.0
 20
3980.0
 10
4400.0
 20
3980.0
 10
4400.0
 20
4220.0
 10
3720.0
 20
4220.0
  0
LWPOLYLINE
  5
51
330
17
100
AcDbEntity
  8
SOURCE_WALL
100
AcDbPolyline
 90
4
 70
1
 10
7240.0
 20
3980.0
 10
7680.0
 20
3980.0
 10
7680.0
 20
4220.0
 10
7240.0
 20
4220.0
  0
LWPOLYLINE
  5
52
330
17
100
AcDbEntity
  8
SOURCE_WALL
100
AcDbPolyline
 90
4
 70
1
 10
2825.0
 20
980.0
 10
3480.0
 20
980.0
 10
3480.0
 20
1220.0
 10
2825.0
 20
1220.0
  0
LWPOLYLINE
  5
53
330
17
100
AcDbEntity
  8
SOURCE_WALL
100
AcDbPolyline
 90
4
 70
1
 10
120.0
 20
980.0
 10
775.0
 20
980.0
 10
775.0
 20
1220.0
 10
120.0
 20
1220.0
  0
LWPOLYLINE
  5
54
330
17
100
AcDbEntity
  8
SOURCE_WALL
100
AcDbPolyline
 90
4
 70
1
 10
7680.0
 20
10260.0
 10
7920.0
 20
10260.0
 10
7920.0
 20
11180.0
 10
7680.0
 20
11180.0
  0
LWPOLYLINE
  5
55
330
17
100
AcDbEntity
  8
SOURCE_WALL
100
AcDbPolyline
 90
4
 70
1
 10
6740.0
 20
13580.0
 10
6990.0
 20
13580.0
 10
6990.0
 20
13700.0
 10
6740.0
 20
13700.0
  0
LWPOLYLINE
  5
56
330
17
100
AcDbEntity
  8
SOURCE_WALL
100
AcDbPolyline
 90
4
 70
1
 10
7050.0
 20
13580.0
 10
7680.0
 20
13580.0
 10
7680.0
 20
13820.0
 10
7050.0
 20
13820.0
  0
LWPOLYLINE
  5
57
330
17
100
AcDbEntity
  8
SOURCE_WALL
100
AcDbPolyline
 90
4
 70
1
 10
7680.0
 20
13330.0
 10
7920.0
 20
13330.0
 10
7920.0
 20
13580.0
 10
7680.0
 20
13580.0
  0
LWPOLYLINE
  5
58
330
17
100
AcDbEntity
  8
SOURCE_WALL
100
AcDbPolyline
 90
4
 70
1
 10
-120.0
 20
5300.0
 10
120.0
 20
5300.0
 10
120.0
 20
6220.0
 10
-120.0
 20
6220.0
  0
LWPOLYLINE
  5
59
330
17
100
AcDbEntity
  8
SOURCE_WALL
100
AcDbPolyline
 90
4
 70
1
 10
2300.0
 20
5180.0
 10
2420.0
 20
5180.0
 10
2420.0
 20
5420.0
 10
2300.0
 20
5420.0
  0
LWPOLYLINE
  5
5A
330
17
100
AcDbEntity
  8
SOURCE_WALL
100
AcDbPolyline
 90
4
 70
1
 10
-120.0
 20
6280.0
 10
120.0
 20
6280.0
 10
120.0
 20
7280.0
 10
-120.0
 20
7280.0
  0
LWPOLYLINE
  5
5B
330
17
100
AcDbEntity
  8
SOURCE_WALL
100
AcDbPolyline
 90
4
 70
1
 10
430.0
 20
5180.0
 10
2300.0
 20
5180.0
 10
2300.0
 20
5300.0
 10
430.0
 20
5300.0
  0
LWPOLYLINE
  5
5C
330
17
100
AcDbEntity
  8
SOURCE_WALL
100
AcDbPolyline
 90
4
 70
1
 10
6350.0
 20
13580.0
 10
6680.0
 20
13580.0
 10
6680.0
 20
13700.0
 10
6350.0
 20
13700.0
  0
LWPOLYLINE
  5
5D
330
17
100
AcDbEntity
  8
SOURCE_WALL
100
AcDbPolyline
 90
4
 70
1
 10
4000.0
 20
13580.0
 10
4380.0
 20
13580.0
 10
4380.0
 20
13820.0
 10
4000.0
 20
13820.0
  0
LWPOLYLINE
  5
5E
330
17
100
AcDbEntity
  8
SOURCE_WALL
100
AcDbPolyline
 90
4
 70
1
 10
-120.0
 20
5180.0
 10
230.0
 20
5180.0
 10
230.0
 20
5530.0
 10
-120.0
 20
5530.0
  0
LWPOLYLINE
  5
5F
330
17
100
AcDbEntity
  8
SOURCE_WALL
100
AcDbPolyline
 90
4
 70
1
 10
-120.0
 20
8370.0
 10
230.0
 20
8370.0
 10
230.0
 20
8720.0
 10
-120.0
 20
8720.0
  0
LWPOLYLINE
  5
60
330
17
100
AcDbEntity
  8
SOURCE_WALL
100
AcDbPolyline
 90
4
 70
1
 10
-120.0
 20
980.0
 10
380.0
 20
980.0
 10
380.0
 20
1480.0
 10
-120.0
 20
1480.0
  0
LWPOLYLINE
  5
61
330
17
100
AcDbEntity
  8
SOURCE_WALL
100
AcDbPolyline
 90
4
 70
1
 10
7570.0
 20
8370.0
 10
7920.0
 20
8370.0
 10
7920.0
 20
8720.0
 10
7570.0
 20
8720.0
  0
LWPOLYLINE
  5
62
330
17
100
AcDbEntity
  8
SOURCE_WALL
100
AcDbPolyline
 90
4
 70
1
 10
7570.0
 20
12570.0
 10
7920.0
 20
12570.0
 10
7920.0
 20
12920.0
 10
7570.0
 20
12920.0
  0
LWPOLYLINE
  5
63
330
17
100
AcDbEntity
  8
SOURCE_WALL
100
AcDbPolyline
 90
4
 70
1
 10
4080.0
 20
12570.0
 10
4430.0
 20
12570.0
 10
4430.0
 20
12920.0
 10
4080.0
 20
12920.0
  0
LWPOLYLINE
  5
64
330
17
100
AcDbEntity
  8
SOURCE_WALL
100
AcDbPolyline
 90
4
 70
1
 10
3480.0
 20
3980.0
 10
3830.0
 20
3980.0
 10
3830.0
 20
4330.0
 10
3480.0
 20
4330.0
  0
LWPOLYLINE
  5
65
330
17
100
AcDbEntity
  8
SOURCE_WALL
100
AcDbPolyline
 90
4
 70
1
 10
2120.0
 20
8420.0
 10
2420.0
 20
8420.0
 10
2420.0
 20
8720.0
 10
2120.0
 20
8720.0
  0
LWPOLYLINE
  5
66
330
17
100
AcDbEntity
  8
SOURCE_WALL
100
AcDbPolyline
 90
4
 70
1
 10
-120.0
 20
12570.0
 10
230.0
 20
12570.0
 10
230.0
 20
12920.0
 10
-120.0
 20
12920.0
  0
LWPOLYLINE
  5
67
330
17
100
AcDbEntity
  8
SOURCE_WALL
100
AcDbPolyline
 90
4
 70
1
 10
7620.0
 20
13520.0
 10
7920.0
 20
13520.0
 10
7920.0
 20
13820.0
 10
7620.0
 20
13820.0
  0
LWPOLYLINE
  5
68
330
17
100
AcDbEntity
  8
SOURCE_WALL
100
AcDbPolyline
 90
4
 70
1
 10
4080.0
 20
13520.0
 10
4380.0
 20
13520.0
 10
4380.0
 20
13820.0
 10
4080.0
 20
13820.0
  0
LWPOLYLINE
  5
69
330
17
100
AcDbEntity
  8
SOURCE_OPENING
100
AcDbPolyline
 90
2
 70
0
 10
775.0
 20
1100.0
 10
2825.0
 20
1100.0
  0
LWPOLYLINE
  5
6A
330
17
100
AcDbEntity
  8
SOURCE_OPENING
100
AcDbPolyline
 90
2
 70
0
 10
4400.0
 20
4100.0
 10
7240.0
 20
4100.0
  0
LWPOLYLINE
  5
6B
330
17
100
AcDbEntity
  8
SOURCE_OPENING
100
AcDbPolyline
 90
2
 70
0
 10
7800.0
 20
4600.0
 10
7800.0
 20
5350.0
  0
LWPOLYLINE
  5
6C
330
17
100
AcDbEntity
  8
SOURCE_OPENING
100
AcDbPolyline
 90
2
 70
0
 10
7800.0
 20
7350.0
 10
7800.0
 20
8100.0
  0
LWPOLYLINE
  5
6D
330
17
100
AcDbEntity
  8
SOURCE_OPENING
100
AcDbPolyline
 90
2
 70
0
 10
7800.0
 20
9510.0
 10
7800.0
 20
10260.0
  0
LWPOLYLINE
  5
6E
330
17
100
AcDbEntity
  8
SOURCE_OPENING
100
AcDbPolyline
 90
2
 70
0
 10
7800.0
 20
11810.0
 10
7800.0
 20
12560.0
  0
LWPOLYLINE
  5
6F
330
17
100
AcDbEntity
  8
SOURCE_OPENING
100
AcDbPolyline
 90
2
 70
0
 10
4380.0
 20
13700.0
 10
7020.0
 20
13700.0
  0
LWPOLYLINE
  5
70
330
17
100
AcDbEntity
  8
SOURCE_OPENING
100
AcDbPolyline
 90
2
 70
0
 10
500.0
 20
12800.0
 10
1250.0
 20
12800.0
  0
LWPOLYLINE
  5
71
330
17
100
AcDbEntity
  8
SOURCE_OPENING
100
AcDbPolyline
 90
2
 70
0
 10
2390.0
 20
12800.0
 10
3160.0
 20
12800.0
  0
LWPOLYLINE
  5
72
330
17
100
AcDbEntity
  8
SOURCE_OPENING
100
AcDbPolyline
 90
2
 70
0
 10
450.0
 20
7400.0
 10
1200.0
 20
7400.0
  0
LWPOLYLINE
  5
73
330
17
100
AcDbEntity
  8
SOURCE_OPENING
100
AcDbPolyline
 90
2
 70
0
 10
2300.0
 20
7625.0
 10
2300.0
 20
8375.0
  0
LWPOLYLINE
  5
74
330
17
100
AcDbEntity
  8
SOURCE_OPENING
100
AcDbPolyline
 90
2
 70
0
 10
2360.0
 20
5420.0
 10
2360.0
 20
6220.0
  0
LWPOLYLINE
  5
75
330
17
100
AcDbEntity
  8
SOURCE_OPENING
100
AcDbPolyline
 90
2
 70
0
 10
5200.0
 20
11240.0
 10
6000.0
 20
11240.0
  0
LWPOLYLINE
  5
76
330
17
100
AcDbEntity
  8
SOURCE_OPENING
100
AcDbPolyline
 90
2
 70
0
 10
4200.0
 20
9580.0
 10
4200.0
 20
11080.0
  0
LWPOLYLINE
  5
77
330
17
100
AcDbEntity
  8
NEW_INTERIOR
100
AcDbPolyline
 90
4
 70
1
 10
2449.9999999999995
 20
9500.0
 10
2570.0
 20
9500.0
 10
2570.0
 20
11399.999999999998
 10
2449.9999999999995
 20
11399.999999999998
  0
LWPOLYLINE
  5
78
330
17
100
AcDbEntity
  8
NEW_INTERIOR
100
AcDbPolyline
 90
4
 70
1
 10
2570.0
 20
9500.0
 10
4100.0
 20
9500.0
 10
4100.0
 20
9620.000000000002
 10
2570.0
 20
9620.000000000002
  0
LWPOLYLINE
  5
79
330
17
100
AcDbEntity
  8
NEW_INTERIOR
100
AcDbPolyline
 90
4
 70
1
 10
2570.0
 20
11280.0
 10
4100.0
 20
11280.0
 10
4100.0
 20
11400.0
 10
2570.0
 20
11400.0
  0
LWPOLYLINE
  5
7A
330
17
100
AcDbEntity
  8
NEW_INTERIOR
100
AcDbPolyline
 90
4
 70
1
 10
3980.0
 20
9620.0
 10
4100.0
 20
9620.0
 10
4100.0
 20
9975.0
 10
3980.0
 20
9975.0
  0
LWPOLYLINE
  5
7B
330
17
100
AcDbEntity
  8
NEW_INTERIOR
100
AcDbPolyline
 90
4
 70
1
 10
3980.0
 20
10924.999999999998
 10
4100.0
 20
10924.999999999998
 10
4100.0
 20
11280.0
 10
3980.0
 20
11280.0
  0
LWPOLYLINE
  5
7C
330
17
100
AcDbEntity
  8
FURNITURE
100
AcDbPolyline
 90
4
 70
1
 10
4479.999999999999
 20
5245.0
 10
6380.0
 20
5245.0
 10
6380.0
 20
7395.000000000001
 10
4479.999999999999
 20
7395.000000000001
  0
LWPOLYLINE
  5
7D
330
17
100
AcDbEntity
  8
FURNITURE
100
AcDbPolyline
 90
4
 70
1
 10
4529.999999999999
 20
5290.0
 10
6330.0
 20
5290.0
 10
6330.0
 20
7350.000000000001
 10
4529.999999999999
 20
7350.000000000001
  0
LWPOLYLINE
  5
7E
330
17
100
AcDbEntity
  8
FURNITURE
100
AcDbPolyline
 90
4
 70
1
 10
4550.0
 20
5369.999999999999
 10
6310.0
 20
5369.999999999999
 10
6310.0
 20
6830.0
 10
4550.0
 20
6830.0
  0
LWPOLYLINE
  5
7F
330
17
100
AcDbEntity
  8
FURNITURE
100
AcDbPolyline
 90
4
 70
1
 10
4460.0
 20
7360.0
 10
6399.999999999999
 20
7360.0
 10
6399.999999999999
 20
7479.999999999999
 10
4460.0
 20
7479.999999999999
  0
LWPOLYLINE
  5
80
330
17
100
AcDbEntity
  8
FURNITURE
100
AcDbPolyline
 90
4
 70
1
 10
4611.000000000001
 20
6819.999999999999
 10
5349.0
 20
6819.999999999999
 10
5349.0
 20
7220.0
 10
4611.000000000001
 20
7220.0
  0
LWPOLYLINE
  5
81
330
17
100
AcDbEntity
  8
FURNITURE
100
AcDbPolyline
 90
4
 70
1
 10
5511.0
 20
6819.999999999999
 10
6249.0
 20
6819.999999999999
 10
6249.0
 20
7220.0
 10
5511.0
 20
7220.0
  0
LWPOLYLINE
  5
82
330
17
100
AcDbEntity
  8
FURNITURE
100
AcDbPolyline
 90
4
 70
1
 10
3969.9999999999995
 20
6830.0
 10
4450.0
 20
6830.0
 10
4450.0
 20
7310.000000000001
 10
3969.9999999999995
 20
7310.000000000001
  0
LWPOLYLINE
  5
83
330
17
100
AcDbEntity
  8
FURNITURE
100
AcDbPolyline
 90
4
 70
1
 10
6410.0
 20
6830.0
 10
6890.000000000001
 20
6830.0
 10
6890.000000000001
 20
7310.000000000001
 10
6410.0
 20
7310.000000000001
  0
LWPOLYLINE
  5
84
330
17
100
AcDbEntity
  8
FURNITURE
100
AcDbPolyline
 90
4
 70
1
 10
4675.0
 20
4450.0
 10
6425.0
 20
4450.0
 10
6425.0
 20
4850.000000000001
 10
4675.0
 20
4850.000000000001
  0
LWPOLYLINE
  5
85
330
17
100
AcDbEntity
  8
FURNITURE
100
AcDbPolyline
 90
4
 70
1
 10
7450.0
 20
9475.0
 10
5050.0
 20
9475.0
 10
5050.0
 20
8924.999999999998
 10
7450.0
 20
8924.999999999998
  0
LWPOLYLINE
  5
86
330
17
100
AcDbEntity
  8
NEW_INTERIOR
100
AcDbPolyline
 90
4
 70
1
 10
3500.0
 20
4220.0
 10
3599.9999999999995
 20
4220.0
 10
3599.9999999999995
 20
7550.0
 10
3500.0
 20
7550.0
  0
LWPOLYLINE
  5
87
330
17
100
AcDbEntity
  8
NEW_INTERIOR
100
AcDbPolyline
 90
4
 70
1
 10
3500.0
 20
8479.999999999998
 10
3599.9999999999995
 20
8479.999999999998
 10
3599.9999999999995
 20
8600.0
 10
3500.0
 20
8600.0
  0
LWPOLYLINE
  5
88
330
17
100
AcDbEntity
  8
FURNITURE
100
AcDbPolyline
 90
4
 70
1
 10
700.0
 20
2395.0000000000005
 10
1800.0
 20
2395.0000000000005
 10
1800.0
 20
4545.0
 10
700.0
 20
4545.0
  0
LWPOLYLINE
  5
89
330
17
100
AcDbEntity
  8
FURNITURE
100
AcDbPolyline
 90
4
 70
1
 10
750.0
 20
2440.0000000000005
 10
1750.0
 20
2440.0000000000005
 10
1750.0
 20
4500.0
 10
750.0
 20
4500.0
  0
LWPOLYLINE
  5
8A
330
17
100
AcDbEntity
  8
FURNITURE
100
AcDbPolyline
 90
4
 70
1
 10
770.0
 20
2520.0
 10
1730.0
 20
2520.0
 10
1730.0
 20
3980.0
 10
770.0
 20
3980.0
  0
LWPOLYLINE
  5
8B
330
17
100
AcDbEntity
  8
FURNITURE
100
AcDbPolyline
 90
4
 70
1
 10
680.0
 20
4510.000000000001
 10
1819.9999999999998
 20
4510.000000000001
 10
1819.9999999999998
 20
4630.0
 10
680.0
 20
4630.0
  0
LWPOLYLINE
  5
8C
330
17
100
AcDbEntity
  8
FURNITURE
100
AcDbPolyline
 90
4
 70
1
 10
795.0
 20
3969.9999999999995
 10
1205.0
 20
3969.9999999999995
 10
1205.0
 20
4370.0
 10
795.0
 20
4370.0
  0
LWPOLYLINE
  5
8D
330
17
100
AcDbEntity
  8
FURNITURE
100
AcDbPolyline
 90
4
 70
1
 10
1295.0
 20
3969.9999999999995
 10
1705.0
 20
3969.9999999999995
 10
1705.0
 20
4370.0
 10
1295.0
 20
4370.0
  0
LWPOLYLINE
  5
8E
330
17
100
AcDbEntity
  8
FURNITURE
100
AcDbPolyline
 90
4
 70
1
 10
190.0
 20
3979.9999999999995
 10
669.9999999999999
 20
3979.9999999999995
 10
669.9999999999999
 20
4460.0
 10
190.0
 20
4460.0
  0
LWPOLYLINE
  5
8F
330
17
100
AcDbEntity
  8
FURNITURE
100
AcDbPolyline
 90
4
 70
1
 10
1829.9999999999998
 20
3979.9999999999995
 10
2309.9999999999995
 20
3979.9999999999995
 10
2309.9999999999995
 20
4460.0
 10
1829.9999999999998
 20
4460.0
  0
LWPOLYLINE
  5
90
330
17
100
AcDbEntity
  8
FURNITURE
100
AcDbPolyline
 90
4
 70
1
 10
2309.9999999999995
 20
1495.0
 10
3210.0
 20
1495.0
 10
3210.0
 20
2045.0
 10
2309.9999999999995
 20
2045.0
  0
LWPOLYLINE
  5
91
330
17
100
AcDbEntity
  8
FURNITURE
100
AcDbPolyline
 90
4
 70
1
 10
2994.9999999999995
 20
2645.0
 10
2525.0
 20
2645.0
 10
2525.0
 20
2195.0
 10
2994.9999999999995
 20
2195.0
  0
LWPOLYLINE
  5
92
330
17
100
AcDbEntity
  8
FURNITURE
100
AcDbPolyline
 90
4
 70
1
 10
2850.0
 20
4100.0
 10
2850.0
 20
2900.0
 10
3350.0
 20
2900.0
 10
3350.0
 20
4100.0
  0
LWPOLYLINE
  5
93
330
17
100
AcDbEntity
  8
NEW_INTERIOR
100
AcDbPolyline
 90
4
 70
1
 10
2420.0
 20
5080.0
 10
2500.0
 20
5080.0
 10
2500.0
 20
5180.0
 10
2420.0
 20
5180.0
  0
LWPOLYLINE
  5
94
330
17
100
AcDbEntity
  8
NEW_INTERIOR
100
AcDbPolyline
 90
4
 70
1
 10
3380.0000000000005
 20
5080.0
 10
3480.0
 20
5080.0
 10
3480.0
 20
5180.0
 10
3380.0000000000005
 20
5180.0
  0
LWPOLYLINE
  5
95
330
17
100
AcDbEntity
  8
FURNITURE
100
AcDbPolyline
 90
4
 70
1
 10
1640.0000000000002
 20
7020.0
 10
2040.0
 20
7020.0
 10
2040.0
 20
7240.0
 10
1640.0000000000002
 20
7240.0
  0
LWPOLYLINE
  5
96
330
17
100
AcDbEntity
  8
FURNITURE
100
AcDbPolyline
 90
4
 70
1
 10
235.0
 20
5430.000000000001
 10
924.9999999999999
 20
5430.000000000001
 10
924.9999999999999
 20
6050.0
 10
235.0
 20
6050.0
  0
LWPOLYLINE
  5
97
330
17
100
AcDbEntity
  8
FURNITURE
100
AcDbPolyline
 90
4
 70
1
 10
222.49999999999997
 20
5417.5
 10
937.5
 20
5417.5
 10
937.5
 20
6062.5
 10
222.49999999999997
 20
6062.5
  0
LWPOLYLINE
  5
98
330
17
100
AcDbEntity
  8
FURNITURE
100
AcDbPolyline
 90
4
 70
1
 10
355.74999999999994
 20
5535.400000000001
 10
804.2499999999999
 20
5535.400000000001
 10
804.2499999999999
 20
5944.6
 10
355.74999999999994
 20
5944.6
  0
LWPOLYLINE
  5
99
330
17
100
AcDbEntity
  8
FURNITURE
100
AcDbPolyline
 90
4
 70
1
 10
519.9999999999999
 20
10775.0
 10
520.0
 20
12325.000000000002
 10
180.00000000000003
 20
12325.000000000002
 10
179.99999999999991
 20
10775.0
  0
LWPOLYLINE
  5
9A
330
17
100
AcDbEntity
  8
FURNITURE
100
AcDbPolyline
 90
4
 70
1
 10
490.0
 20
10895.249999999998
 10
490.0
 20
10995.75
 10
290.00000000000006
 20
10995.75
 10
290.00000000000006
 20
10895.249999999998
  0
LWPOLYLINE
  5
9B
330
17
100
AcDbEntity
  8
FURNITURE
100
AcDbPolyline
 90
4
 70
1
 10
490.0
 20
11184.000000000002
 10
490.0
 20
11296.0
 10
290.00000000000006
 20
11296.0
 10
290.00000000000006
 20
11184.000000000002
  0
LWPOLYLINE
  5
9C
330
17
100
AcDbEntity
  8
FURNITURE
100
AcDbPolyline
 90
4
 70
1
 10
490.0
 20
11476.9
 10
490.0
 20
11592.1
 10
290.00000000000006
 20
11592.1
 10
290.00000000000006
 20
11476.9
  0
LWPOLYLINE
  5
9D
330
17
100
AcDbEntity
  8
FURNITURE
100
AcDbPolyline
 90
4
 70
1
 10
490.0
 20
11771.800000000001
 10
490.0
 20
11886.2
 10
290.00000000000006
 20
11886.2
 10
290.00000000000006
 20
11771.800000000001
  0
LWPOLYLINE
  5
9E
330
17
100
AcDbEntity
  8
FURNITURE
100
AcDbPolyline
 90
4
 70
1
 10
490.0
 20
12066.2
 10
490.0
 20
12180.8
 10
290.00000000000006
 20
12180.8
 10
290.00000000000006
 20
12066.2
  0
LWPOLYLINE
  5
9F
330
17
100
AcDbEntity
  8
FURNITURE
100
AcDbPolyline
 90
4
 70
1
 10
519.9999999999999
 20
10775.0
 10
520.0
 20
12325.000000000002
 10
180.00000000000003
 20
12325.000000000002
 10
179.99999999999991
 20
10775.0
  0
LWPOLYLINE
  5
A0
330
17
100
AcDbEntity
  8
FURNITURE
100
AcDbPolyline
 90
4
 70
1
 10
490.0
 20
10890.449999999999
 10
490.0
 20
11000.55
 10
290.00000000000006
 20
11000.55
 10
290.00000000000006
 20
10890.449999999999
  0
LWPOLYLINE
  5
A1
330
17
100
AcDbEntity
  8
FURNITURE
100
AcDbPolyline
 90
4
 70
1
 10
490.0
 20
11188.5
 10
490.0
 20
11291.500000000002
 10
290.00000000000006
 20
11291.500000000002
 10
290.00000000000006
 20
11188.5
  0
LWPOLYLINE
  5
A2
330
17
100
AcDbEntity
  8
FURNITURE
100
AcDbPolyline
 90
4
 70
1
 10
490.0
 20
11475.399999999998
 10
490.0
 20
11593.6
 10
290.00000000000006
 20
11593.6
 10
290.00000000000006
 20
11475.399999999998
  0
LWPOLYLINE
  5
A3
330
17
100
AcDbEntity
  8
FURNITURE
100
AcDbPolyline
 90
4
 70
1
 10
490.0
 20
11764.85
 10
490.0
 20
11893.15
 10
290.00000000000006
 20
11893.15
 10
290.00000000000006
 20
11764.85
  0
LWPOLYLINE
  5
A4
330
17
100
AcDbEntity
  8
FURNITURE
100
AcDbPolyline
 90
4
 70
1
 10
490.0
 20
12061.1
 10
490.0
 20
12185.9
 10
290.00000000000006
 20
12185.9
 10
290.00000000000006
 20
12061.1
  0
LWPOLYLINE
  5
A5
330
17
100
AcDbEntity
  8
FURNITURE
100
AcDbPolyline
 90
4
 70
1
 10
519.9999999999999
 20
10775.0
 10
520.0
 20
12325.000000000002
 10
180.00000000000003
 20
12325.000000000002
 10
179.99999999999991
 20
10775.0
  0
LWPOLYLINE
  5
A6
330
17
100
AcDbEntity
  8
FURNITURE
100
AcDbPolyline
 90
4
 70
1
 10
490.0
 20
10894.4
 10
490.0
 20
10996.599999999999
 10
290.00000000000006
 20
10996.599999999999
 10
290.00000000000006
 20
10894.4
  0
LWPOLYLINE
  5
A7
330
17
100
AcDbEntity
  8
FURNITURE
100
AcDbPolyline
 90
4
 70
1
 10
490.0
 20
11187.55
 10
490.0
 20
11292.45
 10
290.00000000000006
 20
11292.45
 10
290.00000000000006
 20
11187.55
  0
LWPOLYLINE
  5
A8
330
17
100
AcDbEntity
  8
FURNITURE
100
AcDbPolyline
 90
4
 70
1
 10
490.0
 20
11474.449999999999
 10
490.0
 20
11594.55
 10
290.00000000000006
 20
11594.55
 10
290.00000000000006
 20
11474.449999999999
  0
LWPOLYLINE
  5
A9
330
17
100
AcDbEntity
  8
FURNITURE
100
AcDbPolyline
 90
4
 70
1
 10
490.0
 20
11772.85
 10
490.0
 20
11885.150000000001
 10
290.00000000000006
 20
11885.150000000001
 10
290.00000000000006
 20
11772.85
  0
LWPOLYLINE
  5
AA
330
17
100
AcDbEntity
  8
FURNITURE
100
AcDbPolyline
 90
4
 70
1
 10
490.0
 20
12073.449999999999
 10
490.0
 20
12173.550000000001
 10
290.00000000000006
 20
12173.550000000001
 10
290.00000000000006
 20
12073.449999999999
  0
LWPOLYLINE
  5
AB
330
17
100
AcDbEntity
  8
FURNITURE
100
AcDbPolyline
 90
4
 70
1
 10
1525.0000000000002
 20
11465.0
 10
1525.0000000000002
 20
11934.999999999998
 10
1075.0
 20
11934.999999999998
 10
1075.0
 20
11465.0
  0
LWPOLYLINE
  5
AC
330
17
100
AcDbEntity
  8
FURNITURE
100
AcDbPolyline
 90
4
 70
1
 10
1390.0
 20
10290.000000000002
 10
1910.0
 20
10290.000000000002
 10
1910.0
 20
10810.0
 10
1390.0
 20
10810.0
  0
LWPOLYLINE
  5
AD
330
17
100
AcDbEntity
  8
FURNITURE
100
AcDbPolyline
 90
4
 70
1
 10
264.99999999999994
 20
8930.0
 10
915.0
 20
8930.0
 10
915.0
 20
9570.0
 10
264.99999999999994
 20
9570.0
  0
LWPOLYLINE
  5
AE
330
17
100
AcDbEntity
  8
FURNITURE
100
AcDbPolyline
 90
4
 70
1
 10
1185.0
 20
8900.0
 10
1734.9999999999998
 20
8900.0
 10
1734.9999999999998
 20
9400.0
 10
1185.0
 20
9400.0
  0
LWPOLYLINE
  5
AF
330
17
100
AcDbEntity
  8
FURNITURE
100
AcDbPolyline
 90
4
 70
1
 10
4475.0
 20
11500.0
 10
5125.0
 20
11500.0
 10
5125.0
 20
12300.0
 10
4475.0
 20
12300.0
  0
LWPOLYLINE
  5
B0
330
17
100
AcDbEntity
  8
FURNITURE
100
AcDbPolyline
 90
4
 70
1
 10
4462.499999999999
 20
11487.5
 10
5137.5
 20
11487.5
 10
5137.5
 20
12312.5
 10
4462.499999999999
 20
12312.5
  0
LWPOLYLINE
  5
B1
330
17
100
AcDbEntity
  8
FURNITURE
100
AcDbPolyline
 90
4
 70
1
 10
4588.75
 20
11636.000000000002
 10
5011.249999999999
 20
11636.000000000002
 10
5011.249999999999
 20
12164.0
 10
4588.75
 20
12164.0
  0
LWPOLYLINE
  5
B2
330
17
100
AcDbEntity
  8
FURNITURE
100
AcDbPolyline
 90
4
 70
1
 10
5859.999999999999
 20
13130.0
 10
6260.0
 20
13130.0
 10
6260.0
 20
13350.0
 10
5859.999999999999
 20
13350.0
  0
LWPOLYLINE
  5
B3
330
17
100
AcDbEntity
  8
FURNITURE
100
AcDbPolyline
 90
4
 70
1
 10
6780.0
 20
11440.0
 10
7520.000000000001
 20
11440.0
 10
7520.000000000001
 20
13060.0
 10
6780.0
 20
13060.0
  0
LWPOLYLINE
  5
B4
330
17
100
AcDbEntity
  8
FURNITURE
100
AcDbPolyline
 90
4
 70
1
 10
6870.0
 20
11555.0
 10
7430.000000000001
 20
11555.0
 10
7430.000000000001
 20
12945.0
 10
6870.0
 20
12945.0
  0
CIRCLE
  5
B5
330
17
100
AcDbEntity
  8
SERVICE_INTENT
100
AcDbCircle
 10
5500.0
 20
5200.0
 30
0.0
 40
50.0
  0
TEXT
  5
B6
330
17
100
AcDbEntity
  8
SERVICE_INTENT
100
AcDbText
 10
5580.0
 20
5240.0
 30
0.0
 40
110.0
  1
L2-01
100
AcDbText
  0
CIRCLE
  5
B7
330
17
100
AcDbEntity
  8
SERVICE_INTENT
100
AcDbCircle
 10
6400.0
 20
7600.0
 30
0.0
 40
50.0
  0
TEXT
  5
B8
330
17
100
AcDbEntity
  8
SERVICE_INTENT
100
AcDbText
 10
6480.0
 20
7640.0
 30
0.0
 40
110.0
  1
L2-02
100
AcDbText
  0
CIRCLE
  5
B9
330
17
100
AcDbEntity
  8
SERVICE_INTENT
100
AcDbCircle
 10
5100.0
 20
10200.0
 30
0.0
 40
50.0
  0
TEXT
  5
BA
330
17
100
AcDbEntity
  8
SERVICE_INTENT
100
AcDbText
 10
5180.0
 20
10240.0
 30
0.0
 40
110.0
  1
L2-03
100
AcDbText
  0
CIRCLE
  5
BB
330
17
100
AcDbEntity
  8
SERVICE_INTENT
100
AcDbCircle
 10
1600.0
 20
2100.0
 30
0.0
 40
50.0
  0
TEXT
  5
BC
330
17
100
AcDbEntity
  8
SERVICE_INTENT
100
AcDbText
 10
1680.0
 20
2140.0
 30
0.0
 40
110.0
  1
L2-04
100
AcDbText
  0
CIRCLE
  5
BD
330
17
100
AcDbEntity
  8
SERVICE_INTENT
100
AcDbCircle
 10
1200.0
 20
6100.0
 30
0.0
 40
50.0
  0
TEXT
  5
BE
330
17
100
AcDbEntity
  8
SERVICE_INTENT
100
AcDbText
 10
1280.0
 20
6140.0
 30
0.0
 40
110.0
  1
L2-05
100
AcDbText
  0
CIRCLE
  5
BF
330
17
100
AcDbEntity
  8
SERVICE_INTENT
100
AcDbCircle
 10
1300.0
 20
11400.0
 30
0.0
 40
50.0
  0
TEXT
  5
C0
330
17
100
AcDbEntity
  8
SERVICE_INTENT
100
AcDbText
 10
1380.0
 20
11440.0
 30
0.0
 40
110.0
  1
L2-06
100
AcDbText
  0
CIRCLE
  5
C1
330
17
100
AcDbEntity
  8
SERVICE_INTENT
100
AcDbCircle
 10
1500.0
 20
9200.0
 30
0.0
 40
50.0
  0
TEXT
  5
C2
330
17
100
AcDbEntity
  8
SERVICE_INTENT
100
AcDbText
 10
1580.0
 20
9240.0
 30
0.0
 40
110.0
  1
L2-07
100
AcDbText
  0
CIRCLE
  5
C3
330
17
100
AcDbEntity
  8
SERVICE_INTENT
100
AcDbCircle
 10
6000.0
 20
12100.0
 30
0.0
 40
50.0
  0
TEXT
  5
C4
330
17
100
AcDbEntity
  8
SERVICE_INTENT
100
AcDbText
 10
6080.0
 20
12140.0
 30
0.0
 40
110.0
  1
L2-08
100
AcDbText
  0
CIRCLE
  5
C5
330
17
100
AcDbEntity
  8
SERVICE_INTENT
100
AcDbCircle
 10
3000.0
 20
8500.0
 30
0.0
 40
50.0
  0
TEXT
  5
C6
330
17
100
AcDbEntity
  8
SERVICE_INTENT
100
AcDbText
 10
3080.0
 20
8540.0
 30
0.0
 40
110.0
  1
L2-09
100
AcDbText
  0
CIRCLE
  5
C7
330
17
100
AcDbEntity
  8
SERVICE_INTENT
100
AcDbCircle
 10
150.0
 20
5740.0
 30
0.0
 40
50.0
  0
TEXT
  5
C8
330
17
100
AcDbEntity
  8
SERVICE_INTENT
100
AcDbText
 10
230.0
 20
5780.0
 30
0.0
 40
110.0
  1
W2-01
100
AcDbText
  0
CIRCLE
  5
C9
330
17
100
AcDbEntity
  8
SERVICE_INTENT
100
AcDbCircle
 10
680.0
 20
6900.0
 30
0.0
 40
50.0
  0
TEXT
  5
CA
330
17
100
AcDbEntity
  8
SERVICE_INTENT
100
AcDbText
 10
760.0
 20
6940.0
 30
0.0
 40
110.0
  1
D2-01
100
AcDbText
  0
CIRCLE
  5
CB
330
17
100
AcDbEntity
  8
SERVICE_INTENT
100
AcDbCircle
 10
170.0
 20
4420.0
 30
0.0
 40
50.0
  0
TEXT
  5
CC
330
17
100
AcDbEntity
  8
SERVICE_INTENT
100
AcDbText
 10
250.0
 20
4460.0
 30
0.0
 40
110.0
  1
P2-01
100
AcDbText
  0
CIRCLE
  5
CD
330
17
100
AcDbEntity
  8
SERVICE_INTENT
100
AcDbCircle
 10
170.0
 20
5300.0
 30
0.0
 40
50.0
  0
TEXT
  5
CE
330
17
100
AcDbEntity
  8
SERVICE_INTENT
100
AcDbText
 10
250.0
 20
5340.0
 30
0.0
 40
110.0
  1
P2-02
100
AcDbText
  0
CIRCLE
  5
CF
330
17
100
AcDbEntity
  8
SERVICE_INTENT
100
AcDbCircle
 10
3420.0
 20
4930.0
 30
0.0
 40
50.0
  0
TEXT
  5
D0
330
17
100
AcDbEntity
  8
SERVICE_INTENT
100
AcDbText
 10
3500.0
 20
4970.0
 30
0.0
 40
110.0
  1
S2-01
100
AcDbText
  0
CIRCLE
  5
D1
330
17
100
AcDbEntity
  8
SERVICE_INTENT
100
AcDbCircle
 10
7650.0
 20
7160.0
 30
0.0
 40
50.0
  0
TEXT
  5
D2
330
17
100
AcDbEntity
  8
SERVICE_INTENT
100
AcDbText
 10
7730.0
 20
7200.0
 30
0.0
 40
110.0
  1
P2-03
100
AcDbText
  0
CIRCLE
  5
D3
330
17
100
AcDbEntity
  8
SERVICE_INTENT
100
AcDbCircle
 10
3420.0
 20
1950.0
 30
0.0
 40
50.0
  0
TEXT
  5
D4
330
17
100
AcDbEntity
  8
SERVICE_INTENT
100
AcDbText
 10
3500.0
 20
1990.0
 30
0.0
 40
110.0
  1
P2-04
100
AcDbText
  0
CIRCLE
  5
D5
330
17
100
AcDbEntity
  8
SERVICE_INTENT
100
AcDbCircle
 10
160.0
 20
9900.0
 30
0.0
 40
50.0
  0
TEXT
  5
D6
330
17
100
AcDbEntity
  8
SERVICE_INTENT
100
AcDbText
 10
240.0
 20
9940.0
 30
0.0
 40
110.0
  1
P2-05
100
AcDbText
  0
TEXT
  5
D7
330
17
100
AcDbEntity
  8
NOTE
100
AcDbText
 10
-1000.0
 20
17000.0
 30
0.0
 40
160.0
  1
E4 P02 FLOOR 2 / mm / DESIGN COORDINATION - NOT FOR CONSTRUCTION
100
AcDbText
  0
TEXT
  5
D8
330
17
100
AcDbEntity
  8
NOTE
100
AcDbText
 10
-1000.0
 20
16680.0
 30
0.0
 40
110.0
  1
Original wall positions; opening centre lines do not remove source wall segments. Check source DWG before editing.
100
AcDbText
  0
ENDSEC
  0
SECTION
  2
OBJECTS
  0
DICTIONARY
  5
A
330
0
100
AcDbDictionary
281
1
  3
ACAD_COLOR
350
B
  3
ACAD_GROUP
350
C
  3
ACAD_LAYOUT
350
D
  3
ACAD_MATERIAL
350
E
  3
ACAD_MLEADERSTYLE
350
F
  3
ACAD_MLINESTYLE
350
10
  3
ACAD_PLOTSETTINGS
350
11
  3
ACAD_PLOTSTYLENAME
350
12
  3
ACAD_SCALELIST
350
14
  3
ACAD_TABLESTYLE
350
15
  3
ACAD_VISUALSTYLE
350
16
  3
EZDXF_META
350
2D
  0
DICTIONARY
  5
B
330
A
100
AcDbDictionary
281
1
  0
DICTIONARY
  5
C
330
A
100
AcDbDictionary
281
1
  0
DICTIONARY
  5
D
330
A
100
AcDbDictionary
281
1
  3
Model
350
1A
  3
Layout1
350
1E
  0
DICTIONARY
  5
E
330
A
100
AcDbDictionary
281
1
  3
ByBlock
350
1F
  3
ByLayer
350
20
  3
Global
350
21
  0
DICTIONARY
  5
F
330
A
100
AcDbDictionary
281
1
  3
Standard
350
2C
  0
DICTIONARY
  5
10
330
A
100
AcDbDictionary
281
1
  3
Standard
350
22
  0
DICTIONARY
  5
11
330
A
100
AcDbDictionary
281
1
  0
ACDBDICTIONARYWDFLT
  5
12
330
A
100
AcDbDictionary
281
1
  3
Normal
350
13
100
AcDbDictionaryWithDefault
340
13
  0
ACDBPLACEHOLDER
  5
13
330
12
  0
DICTIONARY
  5
14
330
A
100
AcDbDictionary
281
1
  0
DICTIONARY
  5
15
330
A
100
AcDbDictionary
281
1
  0
DICTIONARY
  5
16
330
A
100
AcDbDictionary
281
1
  0
LAYOUT
  5
1A
330
D
100
AcDbPlotSettings
  1

  4
A3
  6

 40
7.5
 41
20.0
 42
7.5
 43
20.0
 44
420.0
 45
297.0
 46
0.0
 47
0.0
 48
0.0
 49
0.0
140
0.0
141
0.0
142
1.0
143
1.0
 70
1024
 72
1
 73
0
 74
5
  7

 75
16
 76
0
 77
2
 78
300
147
1.0
148
0.0
149
0.0
100
AcDbLayout
  1
Model
 70
1
 71
0
 10
0.0
 20
0.0
 11
420.0
 21
297.0
 12
0.0
 22
0.0
 32
0.0
 14
1e+20
 24
1e+20
 34
1e+20
 15
-1e+20
 25
-1e+20
 35
-1e+20
146
0.0
 13
0.0
 23
0.0
 33
0.0
 16
1.0
 26
0.0
 36
0.0
 17
0.0
 27
1.0
 37
0.0
 76
1
330
17
  0
LAYOUT
  5
1E
330
D
100
AcDbPlotSettings
  1

  4
A3
  6

 40
7.5
 41
20.0
 42
7.5
 43
20.0
 44
420.0
 45
297.0
 46
0.0
 47
0.0
 48
0.0
 49
0.0
140
0.0
141
0.0
142
1.0
143
1.0
 70
0
 72
1
 73
0
 74
5
  7

 75
16
 76
0
 77
2
 78
300
147
1.0
148
0.0
149
0.0
100
AcDbLayout
  1
Layout1
 70
1
 71
1
 10
0.0
 20
0.0
 11
420.0
 21
297.0
 12
0.0
 22
0.0
 32
0.0
 14
1e+20
 24
1e+20
 34
1e+20
 15
-1e+20
 25
-1e+20
 35
-1e+20
146
0.0
 13
0.0
 23
0.0
 33
0.0
 16
1.0
 26
0.0
 36
0.0
 17
0.0
 27
1.0
 37
0.0
 76
1
330
1B
  0
MATERIAL
  5
1F
102
{ACAD_REACTORS
330
E
102
}
330
E
100
AcDbMaterial
  1
ByBlock
  2

 70
0
 40
1.0
 71
1
 41
1.0
 91
-1023410177
 42
1.0
 72
1
  3

 73
1
 74
1
 75
1
 44
0.5
 73
0
 45
1.0
 46
1.0
 77
1
  4

 78
1
 79
1
170
1
 48
1.0
171
1
  6

172
1
173
1
174
1
140
1.0
141
1.0
175
1
  7

176
1
177
1
178
1
143
1.0
179
1
  8

270
1
271
1
272
1
145
1.0
146
1.0
273
1
  9

274
1
275
1
276
1
 42
1.0
 72
1
  3

 73
1
 74
1
 75
1
 94
63
  0
MATERIAL
  5
20
102
{ACAD_REACTORS
330
E
102
}
330
E
100
AcDbMaterial
  1
ByLayer
  2

 70
0
 40
1.0
 71
1
 41
1.0
 91
-1023410177
 42
1.0
 72
1
  3

 73
1
 74
1
 75
1
 44
0.5
 73
0
 45
1.0
 46
1.0
 77
1
  4

 78
1
 79
1
170
1
 48
1.0
171
1
  6

172
1
173
1
174
1
140
1.0
141
1.0
175
1
  7

176
1
177
1
178
1
143
1.0
179
1
  8

270
1
271
1
272
1
145
1.0
146
1.0
273
1
  9

274
1
275
1
276
1
 42
1.0
 72
1
  3

 73
1
 74
1
 75
1
 94
63
  0
MATERIAL
  5
21
102
{ACAD_REACTORS
330
E
102
}
330
E
100
AcDbMaterial
  1
Global
  2

 70
0
 40
1.0
 71
1
 41
1.0
 91
-1023410177
 42
1.0
 72
1
  3

 73
1
 74
1
 75
1
 44
0.5
 73
0
 45
1.0
 46
1.0
 77
1
  4

 78
1
 79
1
170
1
 48
1.0
171
1
  6

172
1
173
1
174
1
140
1.0
141
1.0
175
1
  7

176
1
177
1
178
1
143
1.0
179
1
  8

270
1
271
1
272
1
145
1.0
146
1.0
273
1
  9

274
1
275
1
276
1
 42
1.0
 72
1
  3

 73
1
 74
1
 75
1
 94
63
  0
MLINESTYLE
  5
22
102
{ACAD_REACTORS
330
10
102
}
330
10
100
AcDbMlineStyle
  2
Standard
 70
0
  3

 62
256
 51
90.0
 52
90.0
 71
2
 49
0.5
 62
256
  6
BYLAYER
 49
-0.5
 62
256
  6
BYLAYER
  0
MLEADERSTYLE
  5
2C
102
{ACAD_REACTORS
330
F
102
}
330
F
100
AcDbMLeaderStyle
179
2
170
2
171
1
172
0
 90
2
 40
0.0
 41
0.0
173
1
 91
-1056964608
 92
-2
290
1
 42
2.0
291
1
 43
8.0
  3
Standard
 44
4.0
300

342
29
174
1
175
1
176
0
178
1
 93
-1056964608
 45
4.0
292
0
297
0
 46
4.0
 94
-1056964608
 47
1.0
 49
1.0
140
1.0
294
1
141
0.0
177
0
142
1.0
295
0
296
0
143
3.75
271
0
272
9
273
9
  0
DICTIONARY
  5
2D
330
A
100
AcDbDictionary
280
1
281
1
  3
CREATED_BY_EZDXF
350
2E
  3
WRITTEN_BY_EZDXF
350
DB
  0
DICTIONARYVAR
  5
2E
330
2D
100
DictionaryVariables
280
0
  1
1.4.4 @ 2026-09-10T12:16:55.118352+00:00
  0
DICTIONARYVAR
  5
DB
330
2D
100
DictionaryVariables
280
0
  1
1.4.4 @ 2026-09-10T12:16:55.120919+00:00
  0
ENDSEC
  0
EOF
